{"title":"Nabucco (1985) (TV) Verdi La Scala Milan","uid":5304148,"size":1161146012,"categoryP":"video","categoryS":"movies","magnet":"?xt=urn:btih:eebc41c3229cc105b588f0f607902c8d49fb5c8d&amp;dn=Nabucco+%281985%29+%28TV%29+Verdi+La+Scala+Milan&amp;tr=udp%3A%2F%2Ftracker.openbittorrent.com%3A80&amp;tr=udp%3A%2F%2Fopen.demonii.com%3A1337&amp;tr=udp%3A%2F%2Ftracker.coppersurfer.tk%3A6969&amp;tr=udp%3A%2F%2Fexodus.desync.com%3A6969","seeders":5,"leechers":0,"uploader":"johnefp","files":-1,"time":1264333345,"description":"Act 1: Jerusalem\n\n    'Thus saith the Lord, Behold, I shall deliver this city into the hand of the King of Babylon, and he will burn it with fire' (Jeremiah 21:10) \n\n\n\nAct 2: The Unbeliever\n\n    'Behold, the whirlwind of the Lord goeth forth, it shall fall upon the head of the wicked' (Jeremiah 30:23) \n\n\n\nAct 3: The Prophecy\n\n    'Therefore the wild beasts of the desert with the wild beasts of the islands shall dwell there, and the owls shall dwell therein'. (Jeremiah 50:39\n\n\n\nAct 4: The Shattered Idol\n\n    'Bel is confounded, Merodach is broken in pieces; her idols are confounded, her images are broken in pieces.' (Jeremiah 50:2) \n\n\n\n\nDirector:\nBrian Large\n\n\n\n        Renato Bruson\t ... \tNabucco (Nabucodonosor)\n\tBruno Beccaria\t... \tIsmaele\n\tPaata Burchuladze\t... \tZaccaria\n\tGhena Dimitrova\t... \tAbigaille\n\tRaquel Pierotti\t... \tFenena\n\n\n &lt;a href=&quot;\nhttp://en.wikipedia.org/wiki/Nabucco&quot; rel=&quot;nofollow&quot; target=&quot;_NEW&quot;&gt;\nhttp://en.wikipedia.org/wiki/Nabucco&lt;/a&gt;\n\n &lt;a href=&quot;\nhttp://www.imdb.com/title/tt0253271/&quot; rel=&quot;nofollow&quot; target=&quot;_NEW&quot;&gt;\nhttp://www.imdb.com/title/tt0253271/&lt;/a&gt;\n\n\n\n Video #2\n      ID : 2\n      Format : VC-1\n      Format profile : MP@ML\n      Codec ID : WMV3\n      Codec ID/Info : Windows Media Video 9\n      Codec ID/Hint : WMV3\n      Duration : 2h 19mn\n      Bit rate mode : Variable\n      Bit rate : 1 000 Kbps\n      Width : 640 pixels\n      Height : 480 pixels\n      Display aspect ratio : 4/3\n      Frame rate : 25.000 fps\n      Resolution : 24 bits\n      Scan type : Progressive\n      Bits/(Pixel*Frame) : 0.130\n      Stream size : 999 MiB (90%)\n   Audio #1\n      ID : 1\n      Format : WMA2\n      Format profile : L\n      Codec ID : 161\n      Codec ID/Info : Windows Media Audio 2\n      Description of the codec : Windows Media Audio 9.2 -  96 kbps, 44 kHz, stereo 2-pass VBR\n      Duration : 2h 19mn\n      Bit rate mode : Variable\n      Bit rate : 95.9 Kbps\n      Channel(s) : 2 channels\n      Sampling rate : 44.1 KHz\n      Resolution : 16 bits\n      Stream size : 95.8 MiB (9%)\n\n\n\n\n     Please seed at least as much as you D/L.\n     =======================================\n     Thanks \n\n     John","torrent":{"xt":"urn:btih:eebc41c3229cc105b588f0f607902c8d49fb5c8d","amp;dn":"Nabucco+%281985%29+%28TV%29+Verdi+La+Scala+Milan","amp;tr":["udp%3A%2F%2Ftracker.openbittorrent.com%3A80","udp%3A%2F%2Fopen.demonii.com%3A1337","udp%3A%2F%2Ftracker.coppersurfer.tk%3A6969","udp%3A%2F%2Fexodus.desync.com%3A6969"],"infoHash":"eebc41c3229cc105b588f0f607902c8d49fb5c8d","infoHashBuffer":{"type":"Buffer","data":[238,188,65,195,34,156,193,5,181,136,240,246,7,144,44,141,73,251,92,141]},"announce":[],"urlList":[]}}